<!DOCTYPE svg PUBLIC "-//W3C//DTD SVG 1.1//EN" "http://www.w3.org/Graphics/SVG/1.1/DTD/svg11.dtd">
<!-- Uploaded to: SVG Repo, www.svgrepo.com, Transformed by: SVG Repo Mixer Tools -->
<svg fill="#3ecf8e" height="64px" width="64px" version="1.1" id="Layer_1" xmlns="http://www.w3.org/2000/svg" xmlns:xlink="http://www.w3.org/1999/xlink" viewBox="0 0 512.006 512.006" xml:space="preserve" transform="rotate(45)" stroke="#3ecf8e">
<g id="SVGRepo_bgCarrier" stroke-width="0"/>
<g id="SVGRepo_tracerCarrier" stroke-linecap="round" stroke-linejoin="round"/>
<g id="SVGRepo_iconCarrier"> <g> <g> <path d="M362.879,1.278c-2.517-1.553-5.658-1.698-8.303-0.375l-13.244,6.63L328.08,0.911c-2.398-1.203-5.231-1.203-7.637,0 l-13.244,6.622l-13.252-6.622c-2.398-1.203-5.231-1.203-7.637,0l-13.244,6.622l-13.252-6.622c-2.398-1.203-5.231-1.203-7.637,0 l-13.244,6.622l-13.252-6.63c-2.398-1.203-5.231-1.203-7.637,0l-13.244,6.63l-13.252-6.63c-2.398-1.203-5.231-1.203-7.637,0 l-13.244,6.63l-13.252-6.63c-2.637-1.314-5.777-1.178-8.294,0.375c-2.517,1.553-4.053,4.301-4.053,7.262v221.867 c0,0.009,0,0.009,0,0.017c0,0,0,0.008,0,0.026c0.009,2.15,0.819,4.113,2.142,5.606c0.427,0.486,0.905,0.913,1.434,1.289 c0.811,0.58,1.724,1.024,2.714,1.289c20.873,6.187,69.274,20.574,79.445,41.54c2.364,4.872,2.432,9.745,0.324,15.044 c-1.886,4.275-45.781,105.958-0.026,211.644c1.357,3.123,4.437,5.146,7.834,5.146h34.133c3.396,0,6.477-2.022,7.834-5.146 c45.756-105.677,1.86-207.369,0.094-211.354c-2.227-5.589-2.159-10.462,0.205-15.334c10.163-20.966,58.564-35.354,79.445-41.54 c0.614-0.171,1.212-0.401,1.758-0.7c1.143-0.606,2.108-1.451,2.85-2.449c0.734-0.981,1.254-2.125,1.51-3.362 c0.137-0.623,0.188-1.263,0.179-1.92V8.54C366.932,5.579,365.396,2.839,362.879,1.278z M265.837,272.732 c-4.48,9.233-4.719,19.021-0.58,29.389c0.427,0.964,41.344,95.693,2.125,192.819h-22.767 c-39.108-96.896,1.698-191.863,2.244-193.109c4.019-10.078,3.78-19.866-0.7-29.099c-6.835-14.089-23.083-24.96-42.854-33.792 h105.404C288.92,247.772,272.673,258.643,265.837,272.732z M349.865,221.873H162.132V162.14h187.733V221.873z M349.865,145.073 H162.132V22.347l4.719,2.355c2.398,1.203,5.231,1.203,7.637,0l13.244-6.622l13.252,6.622c2.398,1.203,5.231,1.203,7.637,0 l13.244-6.622l13.252,6.622c2.398,1.203,5.231,1.203,7.637,0l13.244-6.622l13.252,6.622c2.398,1.203,5.231,1.203,7.637,0 l13.244-6.622l13.252,6.622c2.398,1.203,5.231,1.203,7.637,0l13.244-6.622l13.252,6.622c2.398,1.203,5.231,1.203,7.637,0 l4.71-2.355V145.073z"/> </g> </g> </g>
</svg>